<svg width="42" height="304" viewBox="0 0 42 304" fill="none" xmlns="http://www.w3.org/2000/svg">
<path fill-rule="evenodd" clip-rule="evenodd" d="M42.0001 262C42.0001 273.598 32.5981 283 21.0001 283C9.40215 283 0.000131772 273.598 0.000131772 262H42.0001ZM42 283C42 294.598 32.598 304 21 304C9.40202 304 0 294.598 0 283H42Z" fill="#000003" fill-opacity="0.08"/>
<ellipse cx="21" cy="240.167" rx="21" ry="21.8333" transform="rotate(-180 21 240.167)" fill="#000003" fill-opacity="0.08"/>
<ellipse cx="21" cy="196.5" rx="21" ry="21.8333" transform="rotate(-180 21 196.5)" fill="#000003" fill-opacity="0.08"/>
<path fill-rule="evenodd" clip-rule="evenodd" d="M21 163.758C21.0042 169.783 25.7036 174.667 31.5 174.667C37.299 174.667 42 169.779 42 163.75C42 157.721 37.299 152.833 31.5 152.833C25.7036 152.833 21.0042 157.716 21 163.742C20.9958 157.716 16.2964 152.833 10.5 152.833C4.701 152.833 -9.96265e-06 157.721 -1.04897e-05 163.75C-1.10168e-05 169.779 4.701 174.667 10.5 174.667C16.2964 174.667 20.9958 169.783 21 163.758ZM-8.58098e-06 141.916C-8.0539e-06 135.887 4.701 131 10.5 131C16.2972 131 20.997 135.884 21 141.911C21.0029 135.884 25.7028 131 31.5 131C37.299 131 42 135.887 42 141.916C42 147.946 37.299 152.833 31.5 152.833C25.701 152.833 21 147.946 21 141.916C21 147.946 16.299 152.833 10.5 152.833C4.701 152.833 -9.10806e-06 147.946 -8.58098e-06 141.916Z" fill="#000003" fill-opacity="0.08"/>
<path fill-rule="evenodd" clip-rule="evenodd" d="M-1.14441e-05 131C-1.03899e-05 118.942 9.40201 109.167 21 109.167C32.598 109.167 42 118.942 42 131L-1.14441e-05 131ZM-9.53535e-06 109.167C-8.48119e-06 97.1084 9.40201 87.3333 21 87.3333C32.598 87.3333 42 97.1084 42 109.167L-9.53535e-06 109.167Z" fill="#000003" fill-opacity="0.08"/>
<path fill-rule="evenodd" clip-rule="evenodd" d="M21 76.4247C21.0042 82.4501 25.7036 87.3332 31.5 87.3332C37.299 87.3332 42 82.4457 42 76.4166C42 70.3875 37.299 65.4999 31.5 65.4999C25.7036 65.4999 21.0042 70.3831 21 76.4084C20.9958 70.3831 16.2964 65.4999 10.5 65.4999C4.701 65.4999 -9.96265e-06 70.3875 -1.04897e-05 76.4166C-1.10168e-05 82.4457 4.701 87.3332 10.5 87.3332C16.2964 87.3332 20.9958 82.4501 21 76.4247ZM-8.58098e-06 54.583C-8.0539e-06 48.5539 4.701 43.6664 10.5 43.6664C16.2972 43.6664 20.997 48.5509 21 54.5774C21.0029 48.5509 25.7028 43.6664 31.5 43.6664C37.299 43.6664 42 48.5539 42 54.583C42 60.6122 37.299 65.4997 31.5 65.4997C25.701 65.4997 21 60.6122 21 54.583C21 60.6122 16.299 65.4997 10.5 65.4997C4.701 65.4997 -9.10806e-06 60.6122 -8.58098e-06 54.583Z" fill="#000003" fill-opacity="0.08"/>
<path fill-rule="evenodd" clip-rule="evenodd" d="M-1.14441e-05 43.6666C-1.03899e-05 31.6084 9.40201 21.8333 21 21.8333C32.598 21.8333 42 31.6084 42 43.6666L-1.14441e-05 43.6666ZM-9.53535e-06 21.8332C-8.48119e-06 9.77499 9.40201 -0.000121105 21 -0.000120091C32.598 -0.000119078 42 9.775 42 21.8332L-9.53535e-06 21.8332Z" fill="#000003" fill-opacity="0.08"/>
</svg>
